HIERARCHY
ROOT Hips
{
	OFFSET 0.000000 0.000000 0.000000 
	CHANNELS 6 Xposition Yposition Zposition Yrotation Zrotation Xrotation 
	JOINT Lumbar
	{
		OFFSET 0.000000 0.000000 0.000000 
		CHANNELS 3 Zrotation Xrotation Yrotation
		JOINT Neck
		{
			OFFSET 0.000000 0.445665 0.000000 
			CHANNELS 3 Zrotation Xrotation Yrotation
			End Site
			{
				OFFSET 0.000000 0.227535 0.000000 
			}
		}
		JOINT RightShoulder
		{
			OFFSET 0.019635 0.377685 0.194865 
			CHANNELS 3 Zrotation Xrotation Yrotation
			JOINT RightElbow
			{
				OFFSET 0.000000 -0.243375 0.000000 
				CHANNELS 2 Zrotation Yrotation
				JOINT RightWrist
				{
					OFFSET 0.000000 -0.264825 0.000000 
					CHANNELS 2 Zrotation Xrotation
					End Site
					{
						OFFSET 0.006600 -0.176220 0.000990 
					}
				}
			}
		}
		JOINT LeftShoulder
		{
			OFFSET 0.019635 0.377685 -0.194865 
			CHANNELS 3 Zrotation Xrotation Yrotation
			JOINT LeftElbow
			{
				OFFSET 0.000000 -0.243375 0.000000 
				CHANNELS 2 Zrotation Yrotation
				JOINT LeftWrist
				{
					OFFSET 0.000000 -0.264825 0.000000 
					CHANNELS 2 Zrotation Xrotation
					End Site
					{
						OFFSET 0.006600 -0.176220 -0.000990 
					}
				}
			}
		}
	}
	JOINT RightHip
	{
		OFFSET 0.052140 -0.069960 0.075570 
		CHANNELS 3 Zrotation Xrotation Yrotation
		JOINT RightKnee
		{
			OFFSET 0.000000 -0.402270 0.000000 
			CHANNELS 1 Zrotation
			JOINT RightAnkle
			{
				OFFSET 0.000000 -0.404085 0.000000 
				CHANNELS 3 Zrotation Xrotation Yrotation
				End Site
				{
					OFFSET 0.204105 -0.089430 0.008415 
				}
			}
		}
	}
	JOINT LeftHip
	{
		OFFSET 0.052140 -0.069960 -0.075570 
		CHANNELS 3 Zrotation Xrotation Yrotation
		JOINT LeftKnee
		{
			OFFSET 0.000000 -0.402270 0.000000 
			CHANNELS 1 Zrotation
			JOINT LeftAnkle
			{
				OFFSET 0.000000 -0.404085 0.000000 
				CHANNELS 3 Zrotation Xrotation Yrotation
				End Site
				{
					OFFSET 0.204105 -0.089430 -0.008415 
				}
			}
		}
	}
}
MOTION
Frames: 34
Frame Time: 0.02
-0.9729 0.94746 0.07678 223.13724 0 -3.02778 -0.05409 2.52225 -4.88373 -9.3311 9.79823 0.36706 0.82082 -24.09118 -28.3772 133.32047 76.8643 -51.5308 -3.09138 -5.20146 2.91345 29.11942 123.41057 -61.2489 -48.75062 1.8767 8.48869 10.36542 4.29838 -24.81291 9.26768 -8.69478 -13.06222 23.22455 6.31039 -6.09778 -47.18258 7.45622 6.21474 7.70572
-0.96821 0.94756 0.07229 223.30059 0 -2.89235 -1.42901 2.57676 -5.21004 -8.53956 10.17785 0.40387 0.37227 -24.17398 -29.66556 134.63628 78.37056 -55.78233 -3.50422 -7.22484 1.03637 30.60283 125.61627 -63.58568 -49.84601 1.77182 8.92284 10.20863 4.15487 -24.90628 9.08469 -8.5911 -13.0424 23.50214 6.21884 -6.01272 -47.03611 7.60994 6.29636 7.78552
-0.96296 0.94773 0.06812 223.44246 0 -2.76162 -2.79461 2.61682 -5.7053 -8.00756 10.7073 0.58935 1.08744 -24.80486 -31.05777 134.79686 80.4114 -58.28451 -3.53098 -8.62795 -0.80618 32.24797 127.18781 -66.14585 -49.97674 1.51174 9.33815 10.01557 4.05261 -24.9374 8.87505 -8.4656 -13.00625 23.64148 6.11656 -5.88922 -46.72277 7.97059 6.51273 7.97336
-0.95796 0.94788 0.06387 223.58591 0 -2.62902 -4.1496 2.66491 -6.09195 -7.35338 11.14787 0.69086 1.24263 -25.16351 -32.39079 135.48769 82.16126 -61.5175 -3.74121 -10.27633 -2.59671 33.78925 129.01905 -68.52113 -50.53737 1.34224 9.75671 9.83613 3.93717 -24.99198 8.67748 -8.34938 -12.97205 23.83077 6.01548 -5.79388 -46.49168 8.22874 6.66263 8.10465
-0.95294 0.948 0.05931 223.76145 0 -2.49157 -5.57601 2.70605 -6.6062 -6.70522 11.67706 0.85814 1.53111 -25.61817 -33.75792 136.15909 84.14451 -65.09793 -3.94131 -12.08494 -4.67681 35.46257 130.96964 -71.28231 -51.14181 1.091 10.20049 9.66408 3.80084 -25.06851 8.47922 -8.23555 -12.96083 24.07134 5.92576 -5.64858 -46.22319 8.52053 6.83398 8.2662
-0.94784 0.94819 0.05551 223.86483 0 -2.36668 -6.84496 2.75788 -6.89937 -6.11404 12.05741 0.92765 1.82057 -26.00284 -35.08229 136.59063 85.7504 -67.50306 -4.06142 -13.40628 -6.14371 36.89557 132.51121 -73.28323 -51.41711 0.96991 10.58564 9.46952 3.71777 -25.08418 8.27678 -8.11188 -12.89781 24.17095 5.81181 -5.59812 -45.99514 8.79257 6.99308 8.39104
-0.94262 0.94859 0.05358 223.78849 0 -2.27635 -7.71801 2.85071 -6.51652 -5.57927 11.98376 0.65948 1.79702 -26.07186 -36.2952 136.69589 86.26401 -67.16645 -4.05741 -13.57774 -5.93006 37.65224 133.1974 -73.08294 -51.08796 1.27221 10.82026 9.22536 3.76014 -24.94464 8.06492 -7.96376 -12.69731 23.94524 5.62875 -5.84315 -45.9397 8.95511 7.08304 8.38529
-0.93736 0.94906 0.05246 223.63823 0 -2.19886 -8.42419 2.95347 -5.91067 -5.10334 11.75609 0.29389 1.74302 -26.05069 -37.45711 136.58541 86.36194 -65.67907 -3.98168 -13.26819 -5.09892 38.15604 133.46914 -72.11114 -50.44669 1.7056 10.99499 8.95976 3.85644 -24.74662 7.8508 -7.80702 -12.44516 23.57717 5.42301 -6.18156 -45.92743 9.09197 7.15647 8.33923
-0.93216 0.9495 0.05108 223.51287 0 -2.11529 -9.1835 3.04675 -5.42323 -4.62326 11.6029 -0.00672 1.71781 -26.06228 -38.62574 136.54497 86.59297 -64.66473 -3.93494 -13.15459 -4.54763 38.75813 133.85993 -71.52072 -49.90479 2.06229 11.19233 8.70232 3.93491 -24.57616 7.64049 -7.65589 -12.21546 23.25608 5.23151 -6.46223 -45.88557 9.24324 7.23909 8.31402
-0.92678 0.94992 0.04924 223.42303 0 -2.03268 -10.04321 3.16071 -4.86888 -4.04726 11.43611 -0.39031 1.655 -26.12373 -39.87211 136.60145 87.07511 -63.81955 -3.89359 -13.13011 -3.99975 39.4371 134.53861 -70.81744 -49.51349 2.48724 11.4083 8.45042 3.98615 -24.39766 7.41692 -7.49667 -11.98879 23.00699 5.0234 -6.80556 -45.88498 9.38886 7.3195 8.28315
-0.92176 0.9504 0.04856 223.24238 0 -1.95127 -10.64828 3.23385 -4.39959 -3.69353 11.259 -0.62518 1.6671 -26.05772 -40.93692 136.39597 86.93293 -62.34854 -3.82486 -12.79491 -3.29696 39.89254 134.50535 -70.15229 -48.74078 2.80144 11.57174 8.18212 4.10706 -24.22503 7.2215 -7.35276 -11.74466 22.57328 4.8441 -7.04167 -45.80433 9.53902 7.3986 8.25146
-0.91771 0.95101 0.05071 222.82553 0 -1.86794 -10.64171 3.19396 -4.2121 -3.83855 11.09086 -0.43428 1.72774 -25.61843 -41.56579 135.73037 85.13269 -59.63551 -3.73618 -11.88316 -2.33082 39.80169 132.80449 -69.87348 -47.04875 2.7931 11.60307 7.87553 4.4007 -24.0653 7.09828 -7.2516 -11.45701 21.6886 4.75365 -6.95252 -45.54874 9.69257 7.47914 8.24128
-0.91403 0.95168 0.05403 222.32071 0 -1.7853 -10.37518 3.11197 -4.11855 -4.22372 10.91675 -0.08941 1.89163 -25.06037 -42.00295 134.77565 82.72712 -56.3067 -3.61887 -10.64751 -1.22775 39.4919 130.37113 -69.64387 -44.9783 2.66653 11.58447 7.55248 4.76345 -23.9178 7.00471 -7.16657 -11.15505 20.61966 4.69159 -6.75239 -45.20092 9.85262 7.55782 8.22881
-0.91021 0.95231 0.05692 221.85843 0 -1.70428 -10.1945 3.04842 -3.9861 -4.56239 10.74497 0.18991 2.10883 -24.58104 -42.49324 133.82039 80.61339 -53.12928 -3.48936 -9.45631 -0.1788 39.27583 128.14314 -69.32661 -43.04754 2.58503 11.58932 7.23673 5.09874 -23.77569 6.90168 -7.07531 -10.86501 19.61958 4.61506 -6.60905 -44.85956 10.01976 7.63632 8.20733
-0.90628 0.95298 0.05941 221.38228 0 -1.61742 -10.14438 2.98963 -3.82975 -4.6348 10.57023 0.44709 1.89535 -23.99011 -43.12699 133.41153 78.39548 -50.43675 -3.45649 -8.68308 0.85746 39.07627 126.42541 -69.2473 -41.23929 2.5453 11.5869 6.92329 5.41982 -23.58243 6.78165 -6.97903 -10.55062 18.67565 4.54738 -6.44728 -44.67107 10.14693 7.71967 8.22571
-0.90265 0.95359 0.063 220.9157 0 -1.54038 -9.76267 2.90893 -3.74867 -5.32309 10.40132 0.78841 2.61268 -23.60994 -43.41495 131.80182 76.28041 -46.62355 -3.22535 -6.96697 1.94467 38.79259 123.493 -68.70782 -39.09304 2.38789 11.59102 6.59851 5.78551 -23.50293 6.70407 -6.89726 -10.28383 17.57491 4.46449 -6.28988 -44.13951 10.35516 7.79141 8.16261
-0.89984 0.95401 0.06927 220.49187 0 -1.51031 -8.53258 2.79425 -3.85009 -7.60524 10.25849 1.3221 5.7901 -23.79252 -42.81409 126.9348 74.38471 -39.70435 -2.37763 -2.75066 3.13422 38.3403 117.25625 -66.7706 -36.08779 1.94292 11.60576 6.27164 6.26284 -23.7054 6.73682 -6.85035 -10.15513 16.07151 4.36547 -6.22862 -42.7046 10.82052 7.84289 7.86219
-0.89728 0.95438 0.07661 220.08185 0 -1.4864 -6.97955 2.6562 -4.02502 -10.50427 10.12099 1.93543 9.91135 -24.19955 -41.86947 120.88084 72.65072 -31.71846 -1.34504 2.40033 4.36701 37.8108 109.85658 -64.39381 -32.76309 1.38231 11.63349 5.92949 6.78116 -24.02815 6.81116 -6.81753 -10.07407 14.42148 4.24413 -6.16597 -40.92544 11.36106 7.88118 7.48292
-0.89453 0.95479 0.0835 219.66956 0 -1.44632 -5.5708 2.51771 -4.16966 -13.1562 9.97609 2.51509 13.66289 -24.53736 -41.06873 115.36909 70.98991 -24.32864 -0.4486 7.14322 5.58151 37.31063 103.06634 -62.29767 -29.59508 0.86721 11.66758 5.57767 7.27723 -24.31469 6.86626 -6.77942 -9.96993 12.84733 4.11164 -6.06426 -39.28709 11.84413 7.91752 7.14779
-0.89214 0.95513 0.09031 219.2381 0 -1.46223 -4.15674 2.42309 -4.30657 -15.68965 9.85151 3.092 17.18957 -24.73738 -40.30946 109.80187 68.70677 -16.43178 0.66509 11.84817 6.80006 36.82483 95.87613 -59.86167 -26.35456 0.37388 11.64522 5.29467 7.79203 -24.52184 6.92399 -6.73815 -9.87304 11.22222 4.07013 -6.12023 -37.70327 12.42484 7.98535 6.77554
-0.88904 0.95558 0.09749 218.84993 0 -1.36358 -2.68874 2.23383 -4.47298 -18.59639 9.68647 3.68832 21.38035 -25.27321 -39.3896 104.11402 67.74328 -9.36451 1.37467 16.82369 8.01276 36.29631 89.29311 -58.02814 -23.20731 -0.18579 11.74781 4.86584 8.27541 -24.92512 6.98552 -6.70539 -9.77037 9.67765 3.83334 -5.85651 -35.93572 12.82113 7.98698 6.46435
-0.88416 0.95645 0.10561 218.58763 0 -0.94252 -1.08295 1.77419 -4.72735 -22.52198 9.40511 4.34558 27.40328 -26.735 -38.0698 98.02332 70.58695 -4.69321 0.88058 22.53741 9.24902 35.64834 84.3229 -57.96559 -20.2865 -0.94359 12.16273 4.03165 8.67169 -25.82329 7.04967 -6.70271 -9.65903 8.33662 3.0648 -4.64363 -33.65966 12.68046 7.78752 6.31939
-0.87852 0.9574 0.11403 218.36712 0 -0.40724 0.55086 1.22312 -5.00398 -26.77173 9.08398 5.01365 34.01688 -28.51804 -36.60929 91.91897 74.7195 -0.92491 -0.01899 28.44682 10.46921 34.96561 80.06939 -58.5205 -17.49337 -1.75641 12.70943 3.05356 9.03256 -26.91957 7.11592 -6.70609 -9.53681 7.09457 2.10094 -3.12106 -31.22956 12.35383 7.52576 6.24193
-0.8731 0.95825 0.12219 218.12143 0 0.07328 2.12739 0.72371 -5.25374 -30.78461 8.78268 5.65864 40.21144 -30.11893 -35.2402 86.06106 78.13065 3.15008 -0.70493 34.12289 11.66118 34.3125 75.72417 -58.79768 -14.71488 -2.51393 13.21456 2.14431 9.40323 -27.93429 7.17921 -6.70007 -9.40719 5.8419 1.22382 -1.78584 -28.92319 12.11774 7.30686 6.14874
-0.86823 0.95936 0.1309 217.90194 0 0.56737 3.90795 0.18053 -5.57628 -35.20985 8.47221 6.38403 47.08211 -31.87843 -33.74103 79.15536 82.11505 7.69623 -1.50755 40.44814 12.99875 33.5956 70.36352 -59.06347 -11.61649 -3.3997 13.63993 1.21566 9.80285 -28.9105 7.25129 -6.72279 -9.3312 4.43199 0.35057 -0.25782 -26.36735 11.85666 7.02679 5.99272
-0.86202 0.95995 0.1385 217.63809 0 1.05824 5.26029 -0.29255 -5.75228 -38.82932 8.17376 6.94245 52.66337 -33.3832 -32.48637 74.4342 85.21546 11.03787 -2.16686 45.44711 14.03614 33.00761 67.28632 -59.48517 -9.22109 -4.03461 14.26611 0.29887 10.13208 -30.02113 7.30646 -6.68667 -9.14045 3.38372 -0.5719 0.94729 -24.3123 11.60518 6.85861 5.98082
-0.85232 0.95915 0.1432 217.23869 0 1.53071 5.47045 -0.55227 -5.51235 -40.27629 7.89774 7.04512 54.61151 -34.085 -31.92259 75.8446 85.50795 11.22059 -2.32334 46.80025 14.18174 32.7563 70.4971 -60.36713 -8.71986 -3.92055 15.38217 -0.59687 10.28404 -31.37732 7.30208 -6.48916 -8.63521 3.23504 -1.62514 1.13841 -23.56348 11.40179 7.02241 6.38435
-0.84129 0.95781 0.14671 216.79451 0 1.99254 5.23892 -0.73771 -5.12564 -40.87399 7.63914 6.97761 55.22326 -34.52165 -31.61522 79.44259 84.87501 10.22622 -2.324 46.79446 14.03664 32.64106 75.95964 -61.35716 -8.9261 -3.55861 16.70007 -1.46716 10.36394 -32.87433 7.28288 -6.23223 -8.01547 3.46036 -2.71329 1.00112 -23.34494 11.21822 7.29964 6.92513
-0.83083 0.95667 0.15058 216.37154 0 2.44727 5.17613 -0.95526 -4.80861 -41.7702 7.38582 6.98219 56.39513 -35.09297 -31.20422 81.98148 84.69915 9.80138 -2.40211 47.36473 14.06993 32.48277 80.29113 -62.17628 -8.8207 -3.33875 17.94893 -2.31787 10.47197 -34.35868 7.27813 -6.00004 -7.44714 3.56584 -3.75715 1.04652 -22.96297 11.04127 7.51979 7.38058
-0.82048 0.95574 0.15522 215.94293 0 2.9566 5.24671 -1.18276 -4.47673 -43.04493 7.07487 7.00877 57.78821 -35.61791 -30.73271 84.79108 84.41513 9.20233 -2.46622 48.12045 13.91296 32.24584 85.09343 -63.51443 -8.67866 -3.00036 19.11362 -3.30387 10.60107 -35.63916 7.24018 -5.77533 -6.87792 3.46821 -4.92708 0.96744 -22.2566 10.79324 7.76076 7.93327
-0.80961 0.95423 0.15796 215.51922 0 3.34789 4.93783 -1.37094 -4.14453 -43.32826 6.88927 6.94971 58.39453 -36.16968 -30.45114 87.55939 84.11865 8.69493 -2.51723 48.16108 14.07634 32.20306 89.45098 -63.80981 -8.77834 -2.84459 20.49105 -4.00172 10.66612 -37.36774 7.26873 -5.52373 -6.28749 3.87469 -5.84113 1.05819 -22.34307 10.6987 7.98654 8.31762
-0.7974 0.95122 0.15573 215.0821 0 3.41747 3.65781 -1.46587 -3.8125 -41.05406 7.03977 6.689 57.1571 -36.87882 -30.62268 89.65716 84.01627 8.75793 -2.56885 46.58769 15.25571 32.68312 91.93472 -61.02215 -9.37976 -3.29326 22.47934 -3.89475 10.60331 -40.35819 7.47634 -5.18709 -5.6316 5.63722 -6.02968 1.76067 -24.58418 11.03857 8.13926 8.18198
-0.78476 0.94765 0.15162 214.6579 0 3.36745 2.01754 -1.52354 -3.49074 -37.81624 7.31688 6.34924 55.17088 -37.61782 -30.9786 91.64155 83.92559 8.95198 -2.61117 44.33682 16.75572 33.34949 93.90382 -57.2132 -10.19704 -3.92659 24.65921 -3.50022 10.4738 -43.78013 7.75255 -4.82979 -4.96444 7.8831 -5.95994 2.63243 -27.58814 11.53021 8.27358 7.87572
-0.77245 0.94435 0.14838 214.25294 0 3.37092 0.56167 -1.60005 -3.18815 -35.03433 7.54032 6.04998 53.52282 -38.33096 -31.25685 93.69264 83.82267 9.07215 -2.65624 42.37456 18.07023 33.91868 96.17173 -53.9826 -10.91138 -4.4492 26.70463 -3.24742 10.35325 -46.96814 8.00317 -4.49896 -4.32595 9.87102 -6.01494 3.38386 -30.18108 11.94328 8.41904 7.66158
